# xmcd CD database file
#
# Track frame offsets:
#	150
#	16225
#	37880
#	62660
#	81715
#	104781
#	132490
#	154859
#	172358
#	192956
#	234906
#
# Disc length: 4142 seconds
#
# Revision: 0
# Processed by: cddbd v1.5.2PL0 Copyright (c) Steve Scherf et al.
# Submitted via: CDex 1.70beta2
#
DISCID=99102c0b
DTITLE=Badume's Band - Addis Kan
DYEAR=2007
DGENRE=Jazz
TTITLE0=Ya Sèlame Lalo
TTITLE1=Wègèné
TTITLE2=Tchela Atbèlègn
TTITLE3=Alèw Endé Mèla
TTITLE4=Tezeta
TTITLE5=Yèshi Harègitu
TTITLE6=Mètché Nèw
TTITLE7=Feqryé Tèrèda
TTITLE8=Tèw Semagn Hagèré
TTITLE9=Fetsum Denq Ledjnèsh
TTITLE10=extra video
EXTD=YEAR: 2007
EXTT0=
EXTT1=
EXTT2=
EXTT3=
EXTT4=
EXTT5=
EXTT6=
EXTT7=
EXTT8=
EXTT9=
EXTT10=
PLAYORDER=
